<svg width="81" height="68" viewBox="0 0 81 68" fill="none" xmlns="http://www.w3.org/2000/svg">
<path d="M34 0.49999C34.8333 2.99999 35.25 5.08332 35.25 6.75C35.25 8.25 35 10.25 34.5 12.75C23.3333 12.75 17.75 18.5 17.75 30C17.75 34.1667 19.9167 36.5 24.25 37C30.5833 37.5 33.75 41.5833 33.75 49.25C33.75 55.0833 32.3333 59.5833 29.5 62.75C26.8333 65.75 21.9167 67.25 14.75 67.25C4.91667 67.25 5.96046e-07 60.5833 5.96046e-07 47.25C5.96046e-07 33.9167 2.66667 22.8333 8 14C13.3333 4.99999 22 0.49999 34 0.49999ZM79.25 0.49999C80.0833 2.99999 80.5 5.08332 80.5 6.75C80.5 8.25 80.25 10.25 79.75 12.75C68.5833 12.75 63 18.5 63 30C63 34.1667 65.1667 36.5 69.5 37C75.8333 37.5 79 41.5833 79 49.25C79 55.0833 77.5833 59.5833 74.75 62.75C72.0833 65.75 67.1667 67.25 60 67.25C50.1667 67.25 45.25 60.5833 45.25 47.25C45.25 33.9167 47.9167 22.8333 53.25 14C58.5833 4.99999 67.25 0.49999 79.25 0.49999Z" fill="white"/>
</svg>
