<svg width="182" height="169" viewBox="0 0 182 169" fill="none" xmlns="http://www.w3.org/2000/svg">
<path d="M169 162.5C169 164.224 168.315 165.877 167.096 167.096C165.877 168.315 164.224 169 162.5 169H19.5C17.7761 169 16.1228 168.315 14.9038 167.096C13.6848 165.877 13 164.224 13 162.5C13 160.776 13.6848 159.123 14.9038 157.904C16.1228 156.685 17.7761 156 19.5 156H58.5V97.5H52C38.2134 97.4849 24.9957 92.0016 15.2471 82.2529C5.49844 72.5043 0.0150544 59.2866 0 45.5C0.0150592 40.3216 2.08327 35.3606 5.75102 31.7051C9.41877 28.0495 14.3866 25.9978 19.565 26H19.89C24.9563 26.0065 29.8133 28.0219 33.3957 31.6043C36.9781 35.1867 38.9935 40.0437 39 45.11V45.5C39 48.9478 40.3696 52.2544 42.8076 54.6924C45.2456 57.1304 48.5522 58.5 52 58.5H58.5V32.5C58.5 23.8805 61.9241 15.614 68.019 9.51903C74.114 3.4241 82.3805 0 91 0C99.6195 0 107.886 3.4241 113.981 9.51903C120.076 15.614 123.5 23.8805 123.5 32.5V91H130C133.448 91 136.754 89.6304 139.192 87.1924C141.63 84.7544 143 81.4478 143 78V77.61C143.006 72.5437 145.022 67.6867 148.604 64.1043C152.187 60.5219 157.044 58.5065 162.11 58.5H162.435C167.613 58.4978 172.581 60.5495 176.249 64.2051C179.917 67.8606 181.985 72.8216 182 78C181.985 91.7866 176.502 105.004 166.753 114.753C157.004 124.502 143.787 129.985 130 130H123.5V156H162.5C164.224 156 165.877 156.685 167.096 157.904C168.315 159.123 169 160.776 169 162.5Z" fill="#FCEEE2"/>
</svg>
